/* XPM */
static char *result[] = {
/* columns rows colors chars-per-pixel */
"16 16 4 1 ",
"  c #6B6D00",
". c #B53120",
"X c #EA9E22",
"o c #FFFFFFFF",
/* pixels */
"oooooooooooooXXX",
"oooooo.....ooXXX",
"ooooo.........XX",
"ooooo   XX Xo   ",
"oooo X XXX XX   ",
"oooo X  XXX XXX ",
"oooo  XXXX     o",
"ooooooXXXXXXX oo",
"oo     .   . ooo",
"o       .   .oo ",
"XX      .....oo ",
"XXXo.. ..X..X.  ",
"oXo ..........  ",
"oo   .........  ",
"o   .......ooooo",
"o oo....oooooooo"
};
