/* XPM */
static char *c8782c2d49de4abfc3db0eba024ea1f0mpeGFhxbasPNvQr3[] = {
/* columns rows colors chars-per-pixel */
"16 32 4 1 ",
"  c #A41F19",
". c #DE8B1B",
"X c #7F77FF",
"o c #FFFEFF",
/* pixels */
"XXXXXXXXXXXXXXXX",
"XXXXXXXXXXXXXXXX",
"XXXXXX....XXXXXX",
"XXXXXX....XXXXXX",
"XXXX........XXXX",
"XXXX........XXXX",
"XX............XX",
"XX............XX",
"XX....oo  ....XX",
"XX....oo  ....XX",
"....oo....  ....",
"....oo....  ....",
"....oo....  ....",
"....oo....  ....",
"....oo....  ....",
"....oo....  ....",
"....oo....  ....",
"....oo....  ....",
"....oo....  ....",
"....oo....  ....",
"....oo....  ....",
"....oo....  ....",
"XX....oo  ....XX",
"XX....oo  ....XX",
"XX............XX",
"XX............XX",
"XXXX........XXXX",
"XXXX........XXXX",
"XXXXXX....XXXXXX",
"XXXXXX....XXXXXX",
"XXXXXXXXXXXXXXXX",
"XXXXXXXXXXXXXXXX"
};
