/* XPM */
static char *dcb88b05cb6f4268fcc83317d515fef8cIaYH0wJAbNj2ozv[] = {
/* columns rows colors chars-per-pixel */
"16 16 3 1 ",
"  c black",
". c #9C4A00",
"X c #9494FF",
/* pixels */
"X              X",
" .............. ",
" . .......... . ",
" .............. ",
" .............. ",
" .............. ",
" .............. ",
" .............. ",
" .............. ",
" .............. ",
" .............. ",
" .............. ",
" .............. ",
" . .......... . ",
" .............. ",
"X              X"
};
