/* XPM */
static char *_9fd7ea7b0cc4be2be449e21ad52010aeA7Zx2N4xe4hDiCC[] = {
/* columns rows colors chars-per-pixel */
"16 16 4 1 ",
"  c #6B6D00",
". c #B53120",
"X c #EA9E22",
"o c #9290FF",
/* pixels */
"XXXooooooooooooo",
"XXXoo.....oooooo",
"XX.........ooooo",
"   oX XX   ooooo",
"   XX XXX X oooo",
" XXX XXX  X oooo",
"o     XXXX  oooo",
"oo XXXXXXXoooooo",
"ooo .   .     oo",
" oo.   .       o",
" oo.....      XX",
"  .X..X.. ..oXXX",
"  .......... oXo",
"  .........   oo",
"ooooo.......   o",
"oooooooo....oo o"
};
