/* XPM */
static char *ba08e421e9d2473d8e49e7ce206ddc4buphwtC3OraZiraaq[] = {
/* columns rows colors chars-per-pixel */
"16 16 4 1 ",
"  c #6B6D00",
". c #B53120",
"X c #EA9E22",
"o c #9290FF",
/* pixels */
"oooooooooooooooo",
"ooooo.....oooooo",
"oo.........ooooo",
"ooooX XX   ooooo",
"ooXXX XXX X oooo",
"oXXX XXX  X oooo",
"oo    XXXX  oooo",
"oooXXXXXXXoooooo",
"oooXo .    ooooo",
"ooXXX      Xoooo",
"oooXX     .XXooo",
"oooo.......  ooo",
"oooo........ ooo",
"ooooo...o...  oo",
"oooooo   oooo oo",
"ooooo    ooooooo"
};
