/* XPM */
static char *_a40e490d44c401bd4f1d9afc7667355wtknVjpBF8agf2TM[] = {
/* columns rows colors chars-per-pixel */
"16 16 4 1 ",
"  c #6B6D00",
". c #B53120",
"X c #EA9E22",
"o c #9290FF",
/* pixels */
"oooooo.....ooooo",
"oooo........ ooo",
"oooooX X      oo",
"oooXXXXXX XX XXo",
"ooXX  XX  XX XXo",
"ooo  XXXXXX XXoo",
"ooooXX.   ...ooo",
"ooo   .. XXX..oo",
"ooo      XXX .oo",
"ooo      XX...oo",
"oooo    .....ooo",
"ooooo....   .ooo",
"ooooo...    oooo",
"oooooo.   .. o o",
"ooooooooo.     o",
"oooooooooo    oo"
};
